<mxfile host="Electron" agent="Mozilla/5.0 (X11; Linux x86_64) AppleWebKit/537.36 (KHTML, like Gecko) draw.io/24.7.8 Chrome/128.0.6613.36 Electron/32.0.1 Safari/537.36" version="24.7.8">
  <diagram name="PÃ¡gina-1" id="4su0vMgeQ90T0IUqPzcR">
    <mxGraphModel dx="1114" dy="870" grid="1" gridSize="10" guides="1" tooltips="1" connect="1" arrows="1" fold="1" page="1" pageScale="1" pageWidth="827" pageHeight="1169" math="0" shadow="0">
      <root>
        <mxCell id="0" />
        <mxCell id="1" parent="0" />
        <mxCell id="xWSy03trfFnF8wq5d8gP-1" value="&lt;h1&gt;Usuario&lt;/h1&gt;" style="rounded=0;whiteSpace=wrap;html=1;fillColor=#ffff88;strokeColor=#36393d;" vertex="1" parent="1">
          <mxGeometry x="80" y="210" width="510" height="60" as="geometry" />
        </mxCell>
        <mxCell id="xWSy03trfFnF8wq5d8gP-2" value="&lt;h1&gt;Usar aplicacion&lt;/h1&gt;" style="rounded=0;whiteSpace=wrap;html=1;fillColor=#cdeb8b;strokeColor=#36393d;" vertex="1" parent="1">
          <mxGeometry x="80" y="290" width="510" height="60" as="geometry" />
        </mxCell>
        <mxCell id="xWSy03trfFnF8wq5d8gP-3" value="&lt;h1&gt;Agregar informacion&lt;/h1&gt;" style="rounded=0;whiteSpace=wrap;html=1;fillColor=#cce5ff;strokeColor=#36393d;" vertex="1" parent="1">
          <mxGeometry x="80" y="370" width="260" height="60" as="geometry" />
        </mxCell>
        <mxCell id="xWSy03trfFnF8wq5d8gP-4" value="&lt;h1&gt;Informarme&lt;/h1&gt;" style="rounded=0;whiteSpace=wrap;html=1;fillColor=#cce5ff;strokeColor=#36393d;" vertex="1" parent="1">
          <mxGeometry x="430" y="370" width="160" height="60" as="geometry" />
        </mxCell>
        <mxCell id="xWSy03trfFnF8wq5d8gP-5" style="edgeStyle=orthogonalEdgeStyle;rounded=0;orthogonalLoop=1;jettySize=auto;html=1;exitX=0.5;exitY=0;exitDx=0;exitDy=0;entryX=0.404;entryY=0.05;entryDx=0;entryDy=0;entryPerimeter=0;strokeColor=none;" edge="1" parent="1" source="xWSy03trfFnF8wq5d8gP-3" target="xWSy03trfFnF8wq5d8gP-3">
          <mxGeometry relative="1" as="geometry" />
        </mxCell>
        <mxCell id="xWSy03trfFnF8wq5d8gP-6" value="&lt;h1&gt;US1&lt;/h1&gt;" style="whiteSpace=wrap;html=1;aspect=fixed;fillColor=#ffcccc;strokeColor=#36393d;" vertex="1" parent="1">
          <mxGeometry x="170" y="460" width="80" height="80" as="geometry" />
        </mxCell>
        <mxCell id="xWSy03trfFnF8wq5d8gP-7" value="&lt;h1&gt;US2&lt;/h1&gt;" style="whiteSpace=wrap;html=1;aspect=fixed;fillColor=#ffcccc;strokeColor=#36393d;" vertex="1" parent="1">
          <mxGeometry x="170" y="570" width="80" height="80" as="geometry" />
        </mxCell>
        <mxCell id="xWSy03trfFnF8wq5d8gP-8" value="&lt;h1&gt;US3&lt;/h1&gt;" style="whiteSpace=wrap;html=1;aspect=fixed;fillColor=#ffcccc;strokeColor=#36393d;" vertex="1" parent="1">
          <mxGeometry x="170" y="680" width="80" height="80" as="geometry" />
        </mxCell>
        <mxCell id="xWSy03trfFnF8wq5d8gP-9" value="&lt;h1&gt;US4&lt;/h1&gt;" style="whiteSpace=wrap;html=1;aspect=fixed;fillColor=#ffcccc;strokeColor=#36393d;" vertex="1" parent="1">
          <mxGeometry x="470" y="460" width="80" height="80" as="geometry" />
        </mxCell>
        <mxCell id="xWSy03trfFnF8wq5d8gP-10" value="&lt;h1&gt;US5&lt;/h1&gt;" style="whiteSpace=wrap;html=1;aspect=fixed;fillColor=#ffcccc;strokeColor=#36393d;" vertex="1" parent="1">
          <mxGeometry x="470" y="570" width="80" height="80" as="geometry" />
        </mxCell>
      </root>
    </mxGraphModel>
  </diagram>
</mxfile>
